<?xml version="1.0" encoding="UTF-8"?>
<svg id="Layer_3" data-name="Layer 3" xmlns="http://www.w3.org/2000/svg" viewBox="0 0 1080 1080">
  <defs>
    <style>
      .cls-1 {
        fill: none;
        stroke: #000;
        stroke-miterlimit: 10;
        stroke-width: 3px;
      }
    </style>
  </defs>
  <path class="cls-1" d="M136.39,704.31c6.04-1.77,12.09-3.42,18.14-4.94v-1.91M904.5,970.36c-55.21-1.82-110.74-14.19-165.26-26.33-26.99-6-54.35-12.09-81.85-16.97,28.57-14.1,54.84-32.91,77.83-56.09,55.02-55.39,85.15-129.33,84.82-208.23-.27-64.72-21.19-126.01-60.54-177.24-38.1-49.59-92.03-86.36-151.83-103.47-18.2-5.21-37.95-7.23-58.81-6.17,3.55-1.35,6.7-3.61,9.06-6.64,3.71-4.82,5.68-10.41,5.68-16.15,0-4.84-1.39-9.51-4.02-13.73,25.9-11.74,42.44-36.13,42.44-63.18,0-38.75-33.73-70.27-75.21-70.27s-75.19,31.52-75.19,70.27c0,8.14,1.5,16.13,4.43,23.73,7.83,20.33,25.7,34.45,46.4,38.65-2.32.37-4.55,1.31-6.52,2.79-3.71,2.79-5.84,7.01-5.88,11.46v.29c0,7.07,2.93,13.73,8.22,19.04-68.98,6.68-133.3,37.6-181.85,87.63-50.47,51.99-79.82,120.44-82.61,192.73v.33c-.02.16-.02.33-.02.49,0,5.55,2.38,10.88,6.54,14.57,4.86,4.3,11.5,5.9,17.75,4.3,6.29-1.64,11.35-6.27,13.53-12.42,1.17-3.26,2.44-6.19,3.83-8.93,3.09-6.02,6.76-10.82,11.13-14.59,2.15-1.74,4.94-2.91,7.58-3.26l11.25,57.4c.8,4.26,2.09,8.79,5.9,10,5.59,1.37,7.81-5.1,8.65-7.54l.06-.23c2.7-8.73,5.33-17.5,7.97-26.25.72-2.36,1.76-2.32,2.3.1.33,1.45.64,2.91.94,4.34,1.64,7.44,3.32,15.14,5.51,22.52l.12.33c2.52,5.84,6.39,6.09,7.95,5.92,3.63-.41,6.58-3.85,7.46-8.61,4.08-16.07,7.44-33.2,9.92-50.78.43-2.17,1.5-9.51-2.15-12.23-.92-.7-2.93-1.66-5.8-.16l-.51.33c-2.21,1.74-3.14,4.75-3.63,6.91-1.17,5.21-2.03,10.53-2.87,15.68-.86,5.33-1.74,10.78-2.95,16.07-.82-3.61-1.6-7.25-2.38-10.88-1.29-6.09-2.64-12.36-4.06-18.36-.96-5.04-4.1-8.63-7.81-8.93-1.58-.12-5.49.23-7.83,6.54-2.25,7.21-4.24,14.63-6.19,21.8-.59,2.19-1.19,4.39-1.78,6.58-.37-2.09-.72-4.18-1.09-6.27-.53-3.22-1.09-6.41-1.66-9.67-.21-1.02-.37-2.07-.55-3.14-.68-4.1-1.39-8.34-3.73-11.93-1.86-2.81-4.63-4.67-7.93-5.41l-6.05-30.88-.04-.2c-2.36-11.39-1.11-23.03,3.57-33.63,40.27-91.03,130.58-149.84,230.13-149.84,3.48,0,6.86,1.05,9.51,2.95,3.11,2.3,5.74,4.77,7.77,7.44-2.77,5.9-3.89,13.28-3.4,21.97-.06,3.36-.1,6.76-.14,10.18-.04,3.52-.1,7.07-.16,10.57-4.34-7.21-9.14-14.18-13.79-20.94-1.99-2.89-3.96-5.78-5.82-8.55-2.58-4.34-7.73-11.48-13.07-10.06-5.16,1.33-5.37,9.12-5.43,11.68-.31,14.2-.57,28.46-.82,42.69l-.02,1.54c-.02,4-.06,10.68,5.06,12.91l.43.18.47.04c1.78.18,3.36-.31,4.59-1.41,2.79-2.48,2.81-7.25,2.83-10.12v-.33c-.1-4.51-.25-9.02-.37-13.53-.18-5.31-.35-10.64-.43-15.92-.02-1.07.06-1.86.14-2.46.39.51.88,1.23,1.41,2.27.27.45.64,1.13,1.11,1.97,15.6,27.93,24.67,38.63,31.31,37.01,4.96-1.21,5.72-7.85,5.86-12.77l.16-10.68c.16-9.9.31-19.8.43-29.69.02-5.14-.12-10.16-2.09-14.86l-.08-.2c-.31-.59-.64-1.19-.98-1.78,3.55-5.14,9.8-7.87,16.07-6.84,121.42,19.69,210.11,123.41,210.87,246.69.04,3.91-1.31,7.58-3.81,10.37-.66.72-1.39,1.43-2.3,2.19-1.13,1-2.38,1.91-3.69,2.87-1.76,1.29-3.57,2.62-5.08,4.1-2.46,2.13-3.87,4.9-5.12,7.34-.2.39-.39.76-.57,1.13-.64-.43-1.29-.8-1.95-1.13-5.35-2.62-11.13-2.44-16.68-2.27-1.86.06-3.63.12-5.41.06-.88,0-3.57,0-4.55-.8-1.31-1.07-1.39-4.2-1.45-6.97-.02-1.23-.04-2.52-.18-3.63-.31-3.28,0-5.35.92-6.37.98-1.09,3.28-1.64,7.21-1.66,1.89-.12,3.79-.25,5.7-.35,2.85-.16,5.72-.33,8.65-.55,1.84-.18,4.65-.49,6.87-2.34,1.7-1.56,2.34-3.63,1.74-5.68-.72-2.5-3.18-4.45-6.37-5.02-3.75-.51-7.48-.37-11.09-.25-1.95.06-3.77.14-5.76.1-5.16.16-6.39-.45-6.74-1.68-.33-1.99-1.21-7.48.49-9.53.2-.25.8-.98,2.79-1.02l.35-.04c2.6-.35,5.33-.37,8.2-.37,5-.02,10.14-.06,15.06-2.01l.45-.2c2.42-1.45,3.55-3.79,3.01-6.25-.64-2.81-3.38-5.08-6.54-5.41-5.51-.61-11.11-.55-16.52-.53-2.62.04-5.25.06-7.97,0-2.03.02-8.24.1-11.31,4.65-1.76,2.46-2.25,5.51-2.52,8.48-1.27,16.21-.29,32.67.9,49.37.27,13.03,10.64,13.01,18.3,13.01l11.68.2c4.37.08,9.71.18,13.61-2.87.53.59,1.07,1.23,1.62,1.95.7.88,1.37,1.76,2.01,2.64,6.7,9.28,8.69,21.5,5.27,32.81-2.44,7.97-5.25,15.74-8.3,23.1-3.14,7.5-6.64,14.9-10.43,21.99-3.79,7.11-7.97,14.1-12.44,20.8-4.49,6.74-9.3,13.28-14.3,19.43-5.04,6.21-10.45,12.25-16.09,17.99-5.61,5.72-11.58,11.21-17.71,16.35-6.13,5.14-12.58,10.08-19.18,14.63-6.7,4.61-13.61,8.91-20.57,12.79-7.15,3.98-14.49,7.6-21.82,10.8-7.48,3.24-15.19,6.15-22.91,8.65-16.78,5.41-30.9,8.16-44.43,8.65-13.57.47-24-.47-32.83-2.99-9.98-2.87-16.89-8.96-22.01-19.55,2.23.86,4.49,1.91,6.78,2.99,3.61,1.7,7.34,3.46,11.35,4.51,7.23,1.91,14.73,1.15,20.57-2.03,6.74-3.65,11.23-10.59,11.43-17.73.16-5.84-2.46-11.87-7.15-16.5-4.32-4.26-10.1-7.38-18.18-9.75-2.07-.61-3.81-1.41-5.35-2.4-.59-.39-1.07-.74-1.48-1.11-1.64-1.48-1.68-3.24-1.56-4.16.23-1.68,1.31-3.18,2.87-3.98,4.12-2.11,9.9-1.05,15.47-.04,1.21.23,2.4.43,3.59.61l.23.04c6.48.51,9.45-1.86,10.82-3.93l.16-.29c.94-1.84,1.02-3.79.25-5.64-1.66-3.98-6.89-5.86-8.42-6.33-6.5-2.05-19.02-4.55-29.69,1.72-5.23,3.07-9.22,8.38-10.64,14.22-1.21,4.92-.51,9.67,2.03,13.73,3.34,5.33,9.16,8.2,14.43,10.29l1.74.7c5.35,2.09,10.39,4.08,13.4,8.44,1.5,2.17,1.97,4.65,1.33,6.76-1.72,5.53-9.04,5.04-12.69,4.02-4.92-1.39-9.34-4.12-12.83-7.87l-.55-.59c-2.23-2.46-5.59-6.19-10.7-4.88-2.5.66-4.61,2.58-5.68,5.14-.72,1.78-.98,3.65-.82,5.7l-.59-.08.14.43c-8.91.2-16.93,4.59-24.71,8.83-3.28,1.8-6.66,3.65-9.98,5.08-1.62.72-3.44,1.39-5.33,2.01-8.01,2.48-16.82,2.03-24.82-1.29l-.25-.1c-23.24-9.78-37.5-34.08-34.67-59.14.9-8.01,2.58-16.31,4.96-24.63,3.01-10.57,7.25-20.98,12.66-31.15,1.19-.55,2.4-1.11,3.59-1.68,10.78-5.27,21.56-11.58,32.03-18.73l93.34-63.86s.06-.02.08-.02c7.87-3.59,14.18-9.84,17.81-17.66l.04-.06.02-.02.12-.27,82.48-120.64c1.89-2.75,1.56-6.31-.8-8.67-2.36-2.36-5.92-2.68-8.67-.8l-120.6,82.5c-6.7,3.01-12.25,7.95-16,14.16-2.05,3.38-4.06,6.8-6.27,10.06l-71.87,105.07c-3.57,5.21-6.78,10.51-9.71,15.88-1.86.86-3.87,1.74-6.33,2.79-11.23,4.67-20.29,7.38-27.01,8.01-13.09,1.54-26.39.43-39.57-3.28-23.94-6.76-43.12-25.9-50.08-49.94l-.08-.29c-6.56-22.89-23.94-40.66-46.5-47.5-8.05-2.46-16.39-3.4-24.76-2.83-29.35,2.02-58.56,8.65-87.49,17.59M156.39,698.91c19.25-4.75,38.56-8.13,57.88-9.46,7.62-.53,15.21.33,22.54,2.56,19.16,5.82,34.22,20.29,41.03,39.12-1.78-1.07-3.71-1.89-5.78-2.38-7.28-1.68-14.67.61-19.73,6.15-5.04,5.49-6.66,12.97-4.36,20.04,19.08,58.49,55.47,108.75,105.27,145.4,50.58,37.21,110.58,56.87,173.55,56.87h.84c42.17-.12,82.89-8.93,120.05-25.57,30.29,5.06,60.47,11.78,90.23,18.4,54.9,12.23,110.84,24.68,166.59,26.5M154.53,697.47v1.91c.62-.16,1.24-.31,1.87-.46M302.05,635.88c1.64,2.48,2.21,5.92,2.81,9.57.18,1.11.37,2.23.57,3.24.55,3.18,1.11,6.37,1.66,9.57.84,4.94,1.68,9.9,2.58,14.84.23,1.25.86,4.63,3.87,4.73,3.03.16,4.02-3.38,4.45-5,1.37-4.73,2.66-9.53,3.96-14.3,1.91-7.11,3.89-14.47,6.07-21.41.68-1.84,1.37-2.36,1.5-2.4.43.04,1.78,1.31,2.32,4.08,1.41,6.07,2.77,12.34,4.06,18.38.9,4.18,1.78,8.34,2.75,12.6l.06.27c.55,2.13,1.31,5.06,3.71,6.64.94.55,2.03.72,3.05.45.82-.2,2.01-.78,2.95-2.4l.31-.7c2.15-7.32,3.38-14.96,4.57-22.36.82-5.06,1.66-10.31,2.79-15.29.14-.57.27-1.05.41-1.45.02,1.25-.08,2.79-.35,4.24-2.5,17.5-5.8,34.43-9.86,50.45-.51,2.66-1.8,3.81-2.15,3.81-.14,0-.82-.43-1.56-2.07-2.11-7.09-3.75-14.61-5.33-21.89-1.05-4.73-2.11-9.65-3.28-14.32-.39-1.7-1.17-5.23-4.26-5.33-3.11-.1-4.14,3.36-4.63,5-1.62,5.29-3.22,10.59-4.84,15.9-2.01,6.7-4.04,13.38-6.11,20.1-.23.61-.78,2.27-1.33,3.14-.35-.66-.86-2.03-1.37-4.77l-10.74-54.84c.53.43.98.92,1.37,1.52ZM745.04,696.15l-11.11-.2h-.66c-9.12.08-12.01-.53-12.13-7.15-1.19-16.6-2.17-32.83-.94-48.55.2-2.07.51-4.18,1.45-5.51.9-1.31,2.97-1.97,6.25-2.01,2.66.06,5.37.04,8.05,0,5.23-.02,10.62-.08,15.78.49.33.04.59.16.82.31-3.67,1.27-7.81,1.29-12.15,1.31-2.91,0-5.9.02-8.87.41-3.07.12-5.49,1.21-7.17,3.26-3.11,3.75-2.66,9.49-1.8,14.59l.04.2c1.68,6.87,9.3,6.6,12.81,6.48,1.99.02,3.98-.04,5.92-.12,3.48-.12,6.78-.25,9.9.2.39.06.7.18.94.31-.84.31-2.05.45-2.77.51-2.81.23-5.64.37-8.44.53-1.93.12-3.83.23-5.57.35-3.85.02-8.65.47-11.54,3.69-2.21,2.42-2.97,5.84-2.48,11.13.1.9.12,1.99.14,3.14.1,3.89.2,8.75,3.75,11.62,2.36,1.89,5.55,2.15,8.28,2.15h.02c1.89.06,3.83,0,5.7-.06,5.04-.14,9.8-.29,13.77,1.64.23.12.45.25.68.37-2.25,1.05-5.49.98-8.67.92ZM636.12,553.74c.14-.1.47-.33.86.06.39.41.16.72.08.86l-74.29,108.61c0-.51-.02-1.05-.04-1.56-1.09-17.71-15.23-32.15-32.91-33.61-.76-.06-1.52-.1-2.27-.1l108.57-74.27ZM499.43,652.05c3.03-6.89,8.48-12.36,15.41-15.41,4.51-1.97,9.51-2.81,14.49-2.4,14.65,1.21,26.35,13.18,27.26,27.85.29,4.67-.47,9.2-2.25,13.46l-.25.53c-2.97,6.7-8.3,12.07-14.98,15.1-4.8,2.17-10.51.64-13.87-3.73-.06-.08-.14-.18-.2-.27,3.61-1.21,6.82-2.75,9.51-4.57,7.32-4.32,11.82-12.38,11.48-20.47-.29-6.99-4.2-12.83-10.68-15.94-5.8-2.91-12.71-2.44-18.46,1.25-5.66,3.63-8.91,9.59-8.71,15.9.04,5.92,2.23,12.5,6.52,19.63-3.65-.02-7.21-1.09-10.21-3.14-4.02-2.79-6.6-7.03-7.23-11.95-.18-1.29-.27-2.62-.27-3.93,0-4.12.84-8.14,2.46-11.93ZM521.28,681.91c-4.59-6.99-6.95-13.24-6.97-18.67-.14-4.2,2.07-8.16,5.88-10.59,2.23-1.43,4.69-2.17,7.13-2.17,1.82,0,3.63.41,5.31,1.25,4.47,2.17,7.05,5.96,7.23,10.7.25,5.78-3.14,11.76-8.61,15.02-2.77,1.86-6.09,3.34-9.98,4.47ZM422.97,763.94l67.87-99.25c.02,1.35.12,2.68.29,4.02.88,6.68,4.39,12.42,9.86,16.19,5.04,3.48,11.31,4.88,17.58,3.93.59.8,1.19,1.6,1.8,2.38,2.42,3.16,5.68,5.31,9.2,6.35l-84.84,58.01c-8.73,5.96-17.66,11.27-26.64,15.92,1.58-2.54,3.18-5.06,4.88-7.56ZM154.53,693.37v.68-.68M461.77,297.69c-2.64-6.89-4-14.14-4-21.52,0-35.37,30.99-64.12,69.04-64.12s69.06,28.75,69.06,64.12c0,25.08-15.74,47.69-40.23,58.2-1.29-1.33-2.73-2.58-4.28-3.73.47-.23.9-.47,1.27-.66,1-.55,2.03-1.05,3.05-1.56l.78-.39c20.51-10.27,33.26-30.12,33.26-51.87,0-32.44-28.22-58.81-62.91-58.81s-62.89,26.37-62.89,58.81c0,25.94,18.59,49.16,45.27,56.44,1.62.41,3.2.76,4.71,1.07-22.87-.57-43.79-14.39-52.13-35.99ZM530.83,338c5.53-1.35,10.16-2.91,13.85-4.36,1.62.92,3.14,1.95,4.49,3.09-7.36,2.25-22.48,5.84-36.68,3.05,6.05.27,12.21-.31,18.34-1.78ZM512.73,323.9c-.47-.33-1.04-.9-1.15-1.89,0-.14-.02-.29-.02-.41,0-7.4,6.84-13.4,15.25-13.4s15.27,6,15.27,13.4c0,1.31-.2,2.56-.62,3.77-4.57-1.62-9.59-2.48-14.65-2.48-3.87,0-7.66.49-11.31,1.45-.96.25-1.99.08-2.77-.45ZM547.78,325.56c.29-1.31.45-2.62.45-3.96,0-10.78-9.61-19.55-21.41-19.55s-21.39,8.77-21.39,19.55c0,.33.02.7.06,1.05.1.92.37,1.76.74,2.58-21.5-7.79-36.15-27.36-36.15-49.06,0-29.04,25.45-52.67,56.74-52.67s56.76,23.63,56.76,52.67c0,19.39-11.43,37.15-29.86,46.38l-.78.37c-1.07.53-2.15,1.09-3.2,1.64-.49.27-1.19.61-1.97,1ZM496.2,352.94c.02-2.62,1.27-5.06,3.42-6.68,2.21-1.64,4.94-2.17,7.52-1.43,19,5.39,39.88-.76,46.64-3.09,2.4,3.46,3.67,7.36,3.67,11.35,0,4.36-1.52,8.65-4.41,12.38-2.89,3.77-7.5,5.9-12.38,5.68-6.31-.27-10.84-.39-13.85-.39-6.48,0-13.09.25-19.69.68-6.93-4.61-10.92-11.23-10.92-18.48ZM534.19,377.04c-5,.55-9.2.43-12.69-.04,1.76-.04,3.55-.1,5.31-.1s4.26.06,7.38.14ZM508.72,483.56c-.02,2.64-.21,4.08-.43,4.86-.68-1.58-.68-4.82-.66-6.37l.02-1.48c.12-7.01.25-14.04.39-21.05.08,3.46.18,6.95.31,10.43.14,4.47.27,8.96.37,13.36v.25ZM548.35,439.42c-.12,9.88-.27,19.76-.43,29.65l-.16,10.66c-.14,4.96-.98,6.52-1.25,6.89-1.31-.2-7.19-3.16-24.41-34-.47-.86-.86-1.56-1.09-1.93-2.66-5.12-5.33-6.43-7.38-6.43-.41,0-.8.04-1.17.14-1.64.41-3.52,1.74-4.24,5.55.08-4.02.16-8.03.25-12.03.08-3.71.66-5.23.94-5.76,1,.45,3.4,2.52,6.23,7.3,1.95,2.91,3.96,5.82,5.94,8.73,5.08,7.38,10.33,15.02,14.92,22.85l.18.31c1.74,3.01,3.55,6.13,6.62,5.33,3.05-.78,3.16-4.45,3.2-6.23.1-5.02.18-10.16.25-15.31.04-3.42.08-6.87.14-10.25v-.25c-.31-5.16.02-9.73.96-13.71.47,2.66.51,5.55.49,8.48ZM501.71,877.75c.31-.78.9-1.37,1.52-1.54,1.29-.33,2.42.64,4.61,3.05l.59.66c4.24,4.57,9.65,7.89,15.66,9.59,7.87,2.23,17.54.64,20.23-8.12,1.21-3.91.43-8.3-2.11-12.05-4.1-5.92-10.55-8.46-16.25-10.7l-1.68-.66c-4.57-1.82-9.12-4.04-11.52-7.87-2.07-3.3-1.82-6.7-1.27-9,1.02-4.18,4.02-8.16,7.79-10.37,8.65-5.08,19.2-2.91,24.76-1.17,2.4.76,4.26,2.07,4.59,2.87.02.06.06.12,0,.29-.7.84-2.5,1.23-4.96,1.05-1.11-.18-2.21-.37-3.34-.57-6.27-1.15-13.38-2.44-19.37.61-3.36,1.74-5.68,4.98-6.15,8.65-.47,3.59.8,7.05,3.53,9.51.68.61,1.41,1.17,2.25,1.72,2.01,1.29,4.26,2.32,6.93,3.14,7.09,2.09,12.05,4.69,15.62,8.24,3.5,3.44,5.45,7.81,5.33,11.95-.14,4.96-3.36,9.86-8.22,12.48-4.49,2.46-10.35,2.99-16.09,1.5-3.46-.9-6.78-2.46-10.29-4.12-3.89-1.84-7.93-3.73-12.3-4.71-.41-1.76-.37-3.2.14-4.43ZM456.56,903.25c2.13-.7,4.12-1.43,5.94-2.21,3.57-1.56,7.09-3.48,10.47-5.33,8.12-4.45,15.78-8.61,23.98-8.03l.1.25c5.98,14.71,14.78,23.3,27.73,26.99,4.18,1.21,8.69,2.05,13.63,2.6-3.91.2-7.81.43-11.72.76-28.1-.02-55.27-4.63-80.74-13.22,3.59-.14,7.17-.74,10.61-1.8ZM333.63,789.78c13.94,3.93,28.05,5.1,41.89,3.46,7.15-.68,16.64-3.46,28.22-8.24-4,8.36-7.25,16.89-9.71,25.51-2.46,8.67-4.2,17.28-5.14,25.64-2.21,19.65,5.06,38.83,18.63,52.24-49.55-26.6-89.51-69.55-112.2-123.28,10,11.66,23.28,20.41,38.32,24.67ZM527.63,951.06h-.82c-124.72,0-234.36-79.49-273-198.02-1.6-4.94-.45-10.16,3.05-14,2.79-3.03,6.56-4.67,10.51-4.67,1.11,0,2.21.12,3.32.39,4.9,1.13,8.87,4.84,10.41,9.69,16.13,51.09,48.81,96.93,91.99,129.1,44.69,33.28,97.85,50.86,153.72,50.86h.25c36.11-2.99,72.71-.16,109.23,5.39-33.94,13.83-70.7,21.15-108.65,21.25ZM646.84,925.26c-25.37-4.18-50.84-7.17-76.25-7.99,10.78-1.29,22.17-3.91,35.02-8.05,7.93-2.56,15.82-5.55,23.48-8.87,7.5-3.28,15.02-6.99,22.36-11.07,7.13-3.98,14.22-8.38,21.07-13.09,6.76-4.67,13.38-9.71,19.65-14.98,6.29-5.27,12.38-10.9,18.14-16.76,5.76-5.86,11.31-12.07,16.46-18.4,5.14-6.31,10.08-13.01,14.67-19.92,4.57-6.87,8.85-14.04,12.73-21.29,3.89-7.27,7.5-14.86,10.68-22.52,3.16-7.54,6.03-15.51,8.57-23.83,3.93-12.99,1.62-27.21-6.21-38.08-.7-.94-1.41-1.86-2.13-2.81-.92-1.15-1.76-2.15-2.58-3.01.45-.82.86-1.62,1.27-2.42,1.09-2.13,2.11-4.14,3.81-5.61,1.33-1.29,2.91-2.46,4.55-3.67,1.37-1,2.79-2.03,4.08-3.16,1.09-.92,2.03-1.84,2.85-2.77,3.52-3.91,5.43-9.06,5.39-14.57-.37-61.21-22.6-120.39-62.56-166.69-39.55-45.8-94.06-76.34-153.47-85.97-7.89-1.29-15.78,1.74-20.8,7.71-2.13-2.48-4.67-4.8-7.6-6.93-3.71-2.66-8.36-4.12-13.18-4.12-101.93,0-194.46,60.25-235.69,153.49-5.2,11.8-6.58,24.71-3.93,37.52l5.78,29.53c-3.65.55-7.38,2.17-10.35,4.59-4.98,4.3-9.24,9.86-12.64,16.48-1.54,2.99-2.91,6.17-4.16,9.71-1.52,4.28-4.9,7.38-9.28,8.5-4.34,1.11-8.75.04-12.11-2.93-2.85-2.54-4.49-6.17-4.49-9.98l.02-.57c5.64-146.22,119.64-264.25,265.36-275.03,3.11,2.17,12.69,7.44,30.12,5.41,25.31-2.93,49.06-1.31,70.56,4.84,121.89,34.9,207.39,147.92,207.9,274.85.31,77.24-29.18,149.64-83.04,203.86-24.59,24.78-53.01,44.49-84.02,58.61Z"/>
</svg>