<?xml version="1.0" encoding="UTF-8"?>
<svg id="Layer_2" data-name="Layer 2" xmlns="http://www.w3.org/2000/svg" viewBox="0 0 1080 1080">
  <defs>
    <style>
      .cls-1 {
        fill: none;
        stroke: #000;
        stroke-miterlimit: 10;
        stroke-width: 3px;
      }
    </style>
  </defs>
  <path class="cls-1" d="M-8.09,987.71l389.07-77.96s115.01-67.14,110.32-69.14c-13.62-5.8-54.84-8.43-62.73,29.57-5.99,28.85,4.52,38.73,14.92,49.13,7.59,7.58,16.06,4.95,29.8,21.32,7.7,9.17,20,19.98,34.34,23.56,13.48,3.36,40.65.02,50.71-4.26,13.74-5.85,27.09-23.69,27.09-23.69,0,0,3.15-7.59,16.18-11.77,15.19-4.88,23.19-30.12,24.25-39.37,2.05-17.83-14.61-40.34-27.48-45.01-11.95-4.34-27.77-.29-27.77-.29l19.96,25.1s2.21,13.97-3.68,7.35c-5.88-6.62-9.12,2.57-9.85,11.39s-1.68,18.42,9.35,16.95,18.15-12.9,17.42-19.52.74-23.54-1.47-22.06-13.68-10.23-29.12-3.61c-15.45,6.62-25.67,8.51-41.77,9.82-15.39,1.25-26.92-.33-36.48-4.01-9.56-3.68-24.27-9.56-30.89-8.09s-16.18,2.21-15.45,13.97,5.31,24.4,9.56,29.42c3.69,4.37,8.09,8.83,13.24,2.94s5.96-13,3.31-18.74c-3.51-7.6-46.71-37.15-46.71-37.15,0,0,2.94-8.83-2.21-21.33-5.15-12.5-22.06-35.3-33.83-56.63-11.77-21.33-25.01-42.66-19.86-61.05,5.15-18.39,21.33-54.43,21.33-54.43,0,0-9.56,33.83,7.35,47.07,16.92,13.24,28.91,18.66,40.6,25.67,9.85,5.91,29.27,27.28,27.8,30.22s-9.56-23.54-19.86-47.07c-10.3-23.54-22.69-49.56-33.96-55.9-9.94-5.59-9.87-9.94-31.57-10.56-11.76-.33-46.77-13.11-74.54-18.12-25.64-4.63-68.83-13.95-83.01-13.45-13.25.47-34.35,3.15-34.35,3.15,0,0,18.39-5.88,30.15,12.5s36.79,52.67,50.37,64.73c17.9,15.88,55.54,25.43,86.52,10.52,17.98-8.65,42.51-64.1,42.51-64.1,0,0-23.48-103.83-53.64-122.95-30.15-19.12,13.24,16.18,13.97,25.01s.49,59.99-14.83,62.95c-19.61,3.79-53.49,6.14-85.06.88-72.38-12.06-88.27-22.51-108.73-76.29-9.97-26.2.89-68.1,9.06-80.67,19.58-30.11,54.58-53.43,106.69-71.61,43.55-15.2,114.21-38.98,114.21-38.98,0,0-135.97,76.68-138.17,78.15s-30.98,25.14-34.49,47.64c-3.09,19.83,4.68,50.86,24.1,58.81s48.45,11.08,75.54,0,87.14-40.69,87.14-40.69c0,0,48.5-29.93,97.04-12.28s31.9,13.98,31.9,13.98c0,0,36.41-25.74,70.97-17.65,34.57,8.09,85.32,27.21,115.47,43.39s75.66,23.04,99.29,13.97c24.94-9.56,40.81-41.98,27.57-69.19-13.24-27.21-38.33-38.7-78.04-65.18-39.72-26.48-95.15-50.97-95.15-50.97,0,0,80.35,22,106.83,33.77,26.48,11.77,55.72,17.71,80.72,37.57s51.41,58.02,49.07,88.65c-2.34,30.69-9.2,62.59-32.74,79.5-23.54,16.92-50.65,26.83-92.83,29.69-33.47,2.27-51.08,1.6-63.33-.98-7.25-1.52-13.03-6.96-15.06-14.09-4.6-16.18-12.13-46.32-7.37-55.84,6.62-13.24,14.42-18.09,14.42-18.09l-51.48,126.5s-27.95,16.18-36.77,32.36c-8.83,16.18-23.21,50.97-23.21,50.97l-8.42,26.99,15.73-23.19c-3.99.06,21.17-9.88,44.14-24.26,7.15-4.48,17.12-23.82,14.42-47.43-3.61-31.49,29.42-20.59,29.42-20.59l84.58-19.12,52.22-5.88s11.77-5.15,27.95-.74-11.03,0-12.5,2.21-16.18,19.12-16.18,19.12l-20.9,32.39s-27.65,38.22-60.74,41.89c-33.1,3.68-73.34-14.68-76.49-39.72-3.15-25.04,11.77,36.04,11.03,38.25s-.74,38.98-13.24,57.37c-12.5,18.39-21.46,32.77-29.8,44.27-8.48,11.69-12.28,32.44-10.65,41.05,1.45,7.68,5.15,50.75,75.02,89.73,69.87,38.98,347.88,49.28,372.16,41.92,24.27-7.35,21.33-5.15,21.33-5.15l-2.94-4.41"/>
</svg>